<svg width="292" height="255" viewBox="0 0 292 255" fill="none" xmlns="http://www.w3.org/2000/svg">
<path d="M2.275 219.025H10.15V228.615H17.605V219.025H25.515V243.105H17.605V233.655H10.15V243.105H2.275V219.025ZM38.4322 243.385C36.4955 243.385 34.7689 243 33.2522 242.23C31.7589 241.437 30.5922 240.363 29.7522 239.01C28.9122 237.633 28.4922 236.082 28.4922 234.355C28.4922 232.582 28.9239 231.007 29.7872 229.63C30.6505 228.253 31.8172 227.192 33.2872 226.445C34.7572 225.698 36.3905 225.325 38.1872 225.325C39.9139 225.325 41.3839 225.71 42.5972 226.48C43.8339 227.227 44.7555 228.253 45.3622 229.56C45.9689 230.843 46.2722 232.29 46.2722 233.9C46.2722 234.32 46.2489 234.623 46.2022 234.81L35.7022 236.175C35.9822 236.992 36.4372 237.587 37.0672 237.96C37.6972 238.31 38.5255 238.485 39.5522 238.485C41.1389 238.485 42.8539 238.077 44.6972 237.26L45.5722 241.95C43.4022 242.907 41.0222 243.385 38.4322 243.385ZM40.8472 231.765C40.4739 230.295 39.5872 229.56 38.1872 229.56C37.3472 229.56 36.6822 229.875 36.1922 230.505C35.7022 231.135 35.4455 231.952 35.4222 232.955L40.8472 231.765ZM54.9754 243.385C52.9921 243.385 51.4521 242.767 50.3554 241.53C49.2821 240.27 48.7454 238.555 48.7454 236.385V220.04L56.1304 218.955V235.86C56.1304 236.513 56.2821 236.992 56.5854 237.295C56.9121 237.575 57.4721 237.715 58.2654 237.715C58.8488 237.715 59.4204 237.575 59.9804 237.295L60.2254 242.195C58.6621 242.988 56.9121 243.385 54.9754 243.385ZM62.043 225.815H69.428V228.86C70.548 226.503 72.4496 225.325 75.133 225.325C76.6963 225.325 78.1313 225.722 79.438 226.515C80.768 227.285 81.8063 228.358 82.553 229.735C83.323 231.112 83.708 232.652 83.708 234.355C83.708 236.058 83.3113 237.598 82.518 238.975C81.748 240.352 80.698 241.437 79.368 242.23C78.0613 243 76.6613 243.385 75.168 243.385C72.508 243.385 70.5946 242.207 69.428 239.85V247.655L62.043 249.055V225.815ZM72.928 237.855C73.8846 237.855 74.7013 237.505 75.378 236.805C76.0546 236.105 76.393 235.288 76.393 234.355C76.393 233.375 76.043 232.547 75.343 231.87C74.6663 231.193 73.8613 230.855 72.928 230.855C71.9713 230.855 71.1546 231.193 70.478 231.87C69.8013 232.523 69.463 233.305 69.463 234.215V234.355C69.463 235.335 69.8013 236.163 70.478 236.84C71.178 237.517 71.9946 237.855 72.928 237.855ZM86.6988 219.025H94.7838V243.105H86.6988V219.025ZM98.6836 225.815H105.719V229.385C107.072 226.678 109.219 225.325 112.159 225.325C114.399 225.325 116.149 226.13 117.409 227.74C118.692 229.327 119.334 231.532 119.334 234.355V243.105H111.984V233.62C111.984 232.617 111.762 231.847 111.319 231.31C110.899 230.773 110.304 230.505 109.534 230.505C108.974 230.505 108.425 230.692 107.889 231.065C107.352 231.415 106.909 231.928 106.559 232.605C106.232 233.282 106.069 234.052 106.069 234.915V243.105H98.6836V225.815Z" fill="white"/>
<path d="M129.765 219.025H146.355V224.345H137.29V229.21H145.69V233.62H137.29V243.105H129.765V219.025ZM155.361 243.385C153.401 243.385 151.873 242.755 150.776 241.495C149.68 240.235 149.131 238.52 149.131 236.35V225.57H156.551V236.035C156.551 236.572 156.691 236.992 156.971 237.295C157.275 237.575 157.66 237.715 158.126 237.715C158.593 237.715 159.071 237.575 159.561 237.295L159.946 242.16C159.433 242.557 158.756 242.86 157.916 243.07C157.1 243.28 156.248 243.385 155.361 243.385ZM152.841 222.945C151.745 222.945 150.811 222.607 150.041 221.93C149.295 221.23 148.921 220.378 148.921 219.375C148.921 218.372 149.318 217.532 150.111 216.855C150.905 216.178 151.815 215.84 152.841 215.84C153.915 215.84 154.836 216.19 155.606 216.89C156.4 217.59 156.796 218.418 156.796 219.375C156.796 220.402 156.4 221.253 155.606 221.93C154.813 222.607 153.891 222.945 152.841 222.945ZM161.984 225.815H169.019V229.385C170.373 226.678 172.519 225.325 175.459 225.325C177.699 225.325 179.449 226.13 180.709 227.74C181.993 229.327 182.634 231.532 182.634 234.355V243.105H175.284V233.62C175.284 232.617 175.063 231.847 174.619 231.31C174.199 230.773 173.604 230.505 172.834 230.505C172.274 230.505 171.726 230.692 171.189 231.065C170.653 231.415 170.209 231.928 169.859 232.605C169.533 233.282 169.369 234.052 169.369 234.915V243.105H161.984V225.815ZM193.748 243.385C192.231 243.385 190.808 242.988 189.478 242.195C188.171 241.378 187.121 240.282 186.328 238.905C185.534 237.505 185.138 235.953 185.138 234.25C185.138 232.57 185.534 231.053 186.328 229.7C187.121 228.323 188.183 227.25 189.513 226.48C190.843 225.71 192.254 225.325 193.748 225.325C194.961 225.325 196.081 225.663 197.108 226.34C198.158 227.017 198.951 228.032 199.488 229.385V225.325H206.838V243.105H199.488V239.85C198.321 242.207 196.408 243.385 193.748 243.385ZM196.023 237.855C196.956 237.855 197.749 237.528 198.403 236.875C199.079 236.198 199.441 235.405 199.488 234.495V234.215C199.441 233.282 199.068 232.488 198.368 231.835C197.691 231.182 196.909 230.855 196.023 230.855C195.043 230.855 194.203 231.205 193.503 231.905C192.826 232.582 192.488 233.398 192.488 234.355C192.488 235.335 192.838 236.163 193.538 236.84C194.238 237.517 195.066 237.855 196.023 237.855ZM210.383 225.815H217.418V229.385C218.771 226.678 220.918 225.325 223.858 225.325C226.098 225.325 227.848 226.13 229.108 227.74C230.391 229.327 231.033 231.532 231.033 234.355V243.105H223.683V233.62C223.683 232.617 223.461 231.847 223.018 231.31C222.598 230.773 222.003 230.505 221.233 230.505C220.673 230.505 220.124 230.692 219.588 231.065C219.051 231.415 218.608 231.928 218.258 232.605C217.931 233.282 217.768 234.052 217.768 234.915V243.105H210.383V225.815ZM243.056 243.385C241.189 243.385 239.533 243.012 238.086 242.265C236.663 241.495 235.543 240.422 234.726 239.045C233.933 237.668 233.536 236.105 233.536 234.355C233.536 232.675 233.956 231.147 234.796 229.77C235.636 228.393 236.779 227.308 238.226 226.515C239.673 225.722 241.283 225.325 243.056 225.325C245.319 225.325 247.104 225.792 248.411 226.725L247.746 231.38C246.416 230.983 245.319 230.785 244.456 230.785C243.336 230.785 242.449 231.112 241.796 231.765C241.143 232.395 240.816 233.258 240.816 234.355C240.816 235.452 241.143 236.327 241.796 236.98C242.449 237.633 243.313 237.96 244.386 237.96C245.319 237.96 246.416 237.762 247.676 237.365L248.341 242.265C247.548 242.662 246.743 242.942 245.926 243.105C245.109 243.292 244.153 243.385 243.056 243.385ZM259.78 243.385C257.843 243.385 256.117 243 254.6 242.23C253.107 241.437 251.94 240.363 251.1 239.01C250.26 237.633 249.84 236.082 249.84 234.355C249.84 232.582 250.272 231.007 251.135 229.63C251.998 228.253 253.165 227.192 254.635 226.445C256.105 225.698 257.738 225.325 259.535 225.325C261.262 225.325 262.732 225.71 263.945 226.48C265.182 227.227 266.103 228.253 266.71 229.56C267.317 230.843 267.62 232.29 267.62 233.9C267.62 234.32 267.597 234.623 267.55 234.81L257.05 236.175C257.33 236.992 257.785 237.587 258.415 237.96C259.045 238.31 259.873 238.485 260.9 238.485C262.487 238.485 264.202 238.077 266.045 237.26L266.92 241.95C264.75 242.907 262.37 243.385 259.78 243.385ZM262.195 231.765C261.822 230.295 260.935 229.56 259.535 229.56C258.695 229.56 258.03 229.875 257.54 230.505C257.05 231.135 256.793 231.952 256.77 232.955L262.195 231.765Z" fill="#39D18F"/>
<path d="M127.401 39.8765C138.45 39.8765 147.406 30.9499 147.406 19.9383C147.406 8.92667 138.45 0 127.401 0C116.353 0 107.396 8.92667 107.396 19.9383C107.396 30.9499 116.353 39.8765 127.401 39.8765Z" fill="white"/>
<path d="M147.406 35.1543V204.105H107.396V37.1512C112.724 42.0527 119.312 44.9573 126.432 44.9573C134.473 44.9573 141.787 41.266 147.406 35.1543Z" fill="white"/>
<rect y="11.0186" width="39.4838" height="193.086" fill="white"/>
<rect x="39.4838" y="128.025" width="39.8765" height="76.8618" transform="rotate(-90 39.4838 128.025)" fill="white"/>
<rect x="107.396" y="128.025" width="39.8765" height="8.94967" transform="rotate(-90 107.396 128.025)" fill="white"/>
<rect x="184.312" y="128.343" width="33.6715" height="107.688" transform="rotate(-90 184.312 128.343)" fill="#39D18F"/>
<g style="mix-blend-mode:lighten">
<rect x="184.312" y="44.6899" width="33.6715" height="107.688" transform="rotate(-90 184.312 44.6899)" fill="#39D18F"/>
</g>
<g style="mix-blend-mode:lighten">
<rect x="164.253" y="11.0186" width="40.119" height="193.611" fill="#39D18F"/>
</g>
</svg>
