<?xml version="1.0" encoding="utf-8"?>
<!-- Generator: Adobe Illustrator 26.0.3, SVG Export Plug-In . SVG Version: 6.00 Build 0)  -->
<svg version="1.1" id="Layer_1" xmlns="http://www.w3.org/2000/svg" xmlns:xlink="http://www.w3.org/1999/xlink" x="0px" y="0px"
	 viewBox="0 0 1080 1080" style="enable-background:new 0 0 1080 1080;" xml:space="preserve">
<style type="text/css">
	.st0{fill:#FFFFFF;}
	.st1{font-family:'Poppins-Bold';}
	.st2{font-size:36.8259px;}
</style>
<rect x="394" y="730.7" width="367.2" height="83"/>
<rect x="-752.6" y="734.3" width="323.7" height="83"/>
<polygon points="-659.8,685.8 -660.3,722.2 -755.1,722.2 -755.1,346.7 -661.2,429 "/>
<polyline points="-666.1,529.6 -535.3,432.8 -428.9,496.9 -428.9,722.2 -512.4,722.2 -512.4,529.6 -667.6,643.5 "/>
<circle cx="-451.8" cy="402.6" r="47.1"/>
<g>
	<text transform="matrix(1 0 0 1 422.5603 783.2814)" class="st0 st1 st2">Help In Finance</text>
</g>
<text transform="matrix(1 0 0 1 -742.559 788.0037)" class="st0 st1 st2">Help In Finance</text>
<path d="M-755,337.5l305.8,0c-39,0-70.7,31.7-70.7,70.7c0,4.2,0.4,8.3,1.1,12.3h-142.3L-755,337.5z"/>
<path d="M-449.1,337.5"/>
<path d="M762.5,437.8V717h-82.6V441.1c11,8.1,24.6,12.9,39.3,12.9C735.8,454,750.9,447.9,762.5,437.8z"/>
<path d="M665.6,346.4H394V429h268.8c-8.4-10.9-13.4-24.6-13.4-39.6C649.4,372.8,655.6,357.7,665.6,346.4z"/>
<circle cx="717" cy="387.7" r="51.4"/>
<polygon points="476.6,545.6 476.6,442.3 394,442.3 394,712.8 476.6,712.8 476.6,609.4 662.5,609.4 662.5,559.5 662.5,545.6 "/>
</svg>
