<svg width="555" height="486" viewBox="0 0 555 486" fill="none" xmlns="http://www.w3.org/2000/svg">
<path d="M4.68 419.464H20.88V439.192H36.216V419.464H52.488V469H36.216V449.56H20.88V469H4.68V419.464ZM79.0605 469.576C75.0765 469.576 71.5245 468.784 68.4045 467.2C65.3325 465.568 62.9325 463.36 61.2045 460.576C59.4765 457.744 58.6125 454.552 58.6125 451C58.6125 447.352 59.5005 444.112 61.2765 441.28C63.0525 438.448 65.4525 436.264 68.4765 434.728C71.5005 433.192 74.8605 432.424 78.5565 432.424C82.1085 432.424 85.1325 433.216 87.6285 434.8C90.1725 436.336 92.0685 438.448 93.3165 441.136C94.5645 443.776 95.1885 446.752 95.1885 450.064C95.1885 450.928 95.1405 451.552 95.0445 451.936L73.4445 454.744C74.0205 456.424 74.9565 457.648 76.2525 458.416C77.5485 459.136 79.2525 459.496 81.3645 459.496C84.6285 459.496 88.1565 458.656 91.9485 456.976L93.7485 466.624C89.2845 468.592 84.3885 469.576 79.0605 469.576ZM84.0285 445.672C83.2605 442.648 81.4365 441.136 78.5565 441.136C76.8285 441.136 75.4605 441.784 74.4525 443.08C73.4445 444.376 72.9165 446.056 72.8685 448.12L84.0285 445.672ZM113.092 469.576C109.012 469.576 105.844 468.304 103.588 465.76C101.38 463.168 100.276 459.64 100.276 455.176V421.552L115.468 419.32V454.096C115.468 455.44 115.78 456.424 116.404 457.048C117.076 457.624 118.228 457.912 119.86 457.912C121.06 457.912 122.236 457.624 123.388 457.048L123.892 467.128C120.676 468.76 117.076 469.576 113.092 469.576ZM127.631 433.432H142.823V439.696C145.127 434.848 149.039 432.424 154.559 432.424C157.775 432.424 160.727 433.24 163.415 434.872C166.151 436.456 168.287 438.664 169.823 441.496C171.407 444.328 172.199 447.496 172.199 451C172.199 454.504 171.383 457.672 169.751 460.504C168.167 463.336 166.007 465.568 163.271 467.2C160.583 468.784 157.703 469.576 154.631 469.576C149.159 469.576 145.223 467.152 142.823 462.304V478.36L127.631 481.24V433.432ZM150.023 458.2C151.991 458.2 153.671 457.48 155.063 456.04C156.455 454.6 157.151 452.92 157.151 451C157.151 448.984 156.431 447.28 154.991 445.888C153.599 444.496 151.943 443.8 150.023 443.8C148.055 443.8 146.375 444.496 144.983 445.888C143.591 447.232 142.895 448.84 142.895 450.712V451C142.895 453.016 143.591 454.72 144.983 456.112C146.423 457.504 148.103 458.2 150.023 458.2ZM178.352 419.464H194.984V469H178.352V419.464ZM203.006 433.432H217.478V440.776C220.262 435.208 224.678 432.424 230.726 432.424C235.334 432.424 238.934 434.08 241.526 437.392C244.166 440.656 245.486 445.192 245.486 451V469H230.366V449.488C230.366 447.424 229.91 445.84 228.998 444.736C228.134 443.632 226.91 443.08 225.326 443.08C224.174 443.08 223.046 443.464 221.942 444.232C220.838 444.952 219.926 446.008 219.206 447.4C218.534 448.792 218.198 450.376 218.198 452.152V469H203.006V433.432Z" fill="black"/>
<path d="M266.946 419.464H301.074V430.408H282.426V440.416H299.706V449.488H282.426V469H266.946V419.464ZM319.6 469.576C315.568 469.576 312.424 468.28 310.168 465.688C307.912 463.096 306.784 459.568 306.784 455.104V432.928H322.048V454.456C322.048 455.56 322.336 456.424 322.912 457.048C323.536 457.624 324.328 457.912 325.288 457.912C326.248 457.912 327.232 457.624 328.24 457.048L329.032 467.056C327.976 467.872 326.584 468.496 324.856 468.928C323.176 469.36 321.424 469.576 319.6 469.576ZM314.416 427.528C312.16 427.528 310.24 426.832 308.656 425.44C307.12 424 306.352 422.248 306.352 420.184C306.352 418.12 307.168 416.392 308.8 415C310.432 413.608 312.304 412.912 314.416 412.912C316.624 412.912 318.52 413.632 320.104 415.072C321.736 416.512 322.552 418.216 322.552 420.184C322.552 422.296 321.736 424.048 320.104 425.44C318.472 426.832 316.576 427.528 314.416 427.528ZM333.225 433.432H347.697V440.776C350.481 435.208 354.897 432.424 360.945 432.424C365.553 432.424 369.153 434.08 371.745 437.392C374.385 440.656 375.705 445.192 375.705 451V469H360.585V449.488C360.585 447.424 360.129 445.84 359.217 444.736C358.353 443.632 357.129 443.08 355.545 443.08C354.393 443.08 353.265 443.464 352.161 444.232C351.057 444.952 350.145 446.008 349.425 447.4C348.753 448.792 348.417 450.376 348.417 452.152V469H333.225V433.432ZM398.567 469.576C395.447 469.576 392.519 468.76 389.783 467.128C387.095 465.448 384.935 463.192 383.303 460.36C381.671 457.48 380.855 454.288 380.855 450.784C380.855 447.328 381.671 444.208 383.303 441.424C384.935 438.592 387.119 436.384 389.855 434.8C392.591 433.216 395.495 432.424 398.567 432.424C401.063 432.424 403.367 433.12 405.479 434.512C407.639 435.904 409.271 437.992 410.375 440.776V432.424H425.495V469H410.375V462.304C407.975 467.152 404.039 469.576 398.567 469.576ZM403.247 458.2C405.167 458.2 406.799 457.528 408.143 456.184C409.535 454.792 410.279 453.16 410.375 451.288V450.712C410.279 448.792 409.511 447.16 408.071 445.816C406.679 444.472 405.071 443.8 403.247 443.8C401.231 443.8 399.503 444.52 398.063 445.96C396.671 447.352 395.975 449.032 395.975 451C395.975 453.016 396.695 454.72 398.135 456.112C399.575 457.504 401.279 458.2 403.247 458.2ZM432.788 433.432H447.26V440.776C450.044 435.208 454.46 432.424 460.508 432.424C465.116 432.424 468.716 434.08 471.308 437.392C473.948 440.656 475.268 445.192 475.268 451V469H460.148V449.488C460.148 447.424 459.692 445.84 458.78 444.736C457.916 443.632 456.692 443.08 455.108 443.08C453.956 443.08 452.828 443.464 451.724 444.232C450.62 444.952 449.708 446.008 448.988 447.4C448.316 448.792 447.98 450.376 447.98 452.152V469H432.788V433.432ZM500.001 469.576C496.161 469.576 492.753 468.808 489.777 467.272C486.849 465.688 484.545 463.48 482.865 460.648C481.233 457.816 480.417 454.6 480.417 451C480.417 447.544 481.281 444.4 483.009 441.568C484.737 438.736 487.089 436.504 490.065 434.872C493.041 433.24 496.353 432.424 500.001 432.424C504.657 432.424 508.329 433.384 511.017 435.304L509.649 444.88C506.913 444.064 504.657 443.656 502.881 443.656C500.577 443.656 498.753 444.328 497.409 445.672C496.065 446.968 495.393 448.744 495.393 451C495.393 453.256 496.065 455.056 497.409 456.4C498.753 457.744 500.529 458.416 502.737 458.416C504.657 458.416 506.913 458.008 509.505 457.192L510.873 467.272C509.241 468.088 507.585 468.664 505.905 469C504.225 469.384 502.257 469.576 500.001 469.576ZM534.404 469.576C530.42 469.576 526.868 468.784 523.748 467.2C520.676 465.568 518.276 463.36 516.548 460.576C514.82 457.744 513.956 454.552 513.956 451C513.956 447.352 514.844 444.112 516.62 441.28C518.396 438.448 520.796 436.264 523.82 434.728C526.844 433.192 530.204 432.424 533.9 432.424C537.452 432.424 540.476 433.216 542.972 434.8C545.516 436.336 547.412 438.448 548.66 441.136C549.908 443.776 550.532 446.752 550.532 450.064C550.532 450.928 550.484 451.552 550.388 451.936L528.788 454.744C529.364 456.424 530.3 457.648 531.596 458.416C532.892 459.136 534.596 459.496 536.708 459.496C539.972 459.496 543.5 458.656 547.292 456.976L549.092 466.624C544.628 468.592 539.732 469.576 534.404 469.576ZM539.372 445.672C538.604 442.648 536.78 441.136 533.9 441.136C532.172 441.136 530.804 441.784 529.796 443.08C528.788 444.376 528.26 446.056 528.212 448.12L539.372 445.672Z" fill="#39D18F"/>
<path d="M242 76C262.987 76 280 58.9868 280 38C280 17.0132 262.987 0 242 0C221.013 0 204 17.0132 204 38C204 58.9868 221.013 76 242 76Z" fill="black"/>
<path d="M280 67V389H204V70.8059C214.121 80.1476 226.634 85.6834 240.16 85.6834C255.433 85.6834 269.327 78.6483 280 67Z" fill="black"/>
<rect y="21" width="75" height="368" fill="black"/>
<rect x="75" y="244" width="76" height="146" transform="rotate(-90 75 244)" fill="black"/>
<rect x="204" y="244" width="76" height="17" transform="rotate(-90 204 244)" fill="black"/>
<rect x="350.103" y="244.606" width="64.1739" height="204.554" transform="rotate(-90 350.103 244.606)" fill="#39D18F"/>
<g style="mix-blend-mode:lighten">
<rect x="350.103" y="85.1738" width="64.1739" height="204.554" transform="rotate(-90 350.103 85.1738)" fill="#39D18F"/>
</g>
<g style="mix-blend-mode:lighten">
<rect x="312" y="21" width="76.2065" height="369" fill="#39D18F"/>
</g>
</svg>
