<svg width="795" height="941" viewBox="0 0 795 941" fill="none" xmlns="http://www.w3.org/2000/svg">
<path d="M67 830.8V901H49.9V872.1H23.3V901H6.2V830.8H23.3V858.3H49.9V830.8H67ZM131.945 872.2C131.945 873.8 131.845 875.467 131.645 877.2H92.9445C93.2112 880.667 94.3112 883.333 96.2445 885.2C98.2445 887 100.678 887.9 103.545 887.9C107.811 887.9 110.778 886.1 112.445 882.5H130.645C129.711 886.167 128.011 889.467 125.545 892.4C123.145 895.333 120.111 897.633 116.445 899.3C112.778 900.967 108.678 901.8 104.145 901.8C98.6779 901.8 93.8112 900.633 89.5445 898.3C85.2779 895.967 81.9445 892.633 79.5445 888.3C77.1445 883.967 75.9445 878.9 75.9445 873.1C75.9445 867.3 77.1112 862.233 79.4445 857.9C81.8445 853.567 85.1779 850.233 89.4445 847.9C93.7112 845.567 98.6112 844.4 104.145 844.4C109.545 844.4 114.345 845.533 118.545 847.8C122.745 850.067 126.011 853.3 128.345 857.5C130.745 861.7 131.945 866.6 131.945 872.2ZM114.445 867.7C114.445 864.767 113.445 862.433 111.445 860.7C109.445 858.967 106.945 858.1 103.945 858.1C101.078 858.1 98.6445 858.933 96.6445 860.6C94.7112 862.267 93.5112 864.633 93.0445 867.7H114.445ZM158.066 827V901H140.966V827H158.066ZM187.558 853.1C189.224 850.5 191.524 848.4 194.458 846.8C197.391 845.2 200.824 844.4 204.758 844.4C209.358 844.4 213.524 845.567 217.258 847.9C220.991 850.233 223.924 853.567 226.058 857.9C228.258 862.233 229.358 867.267 229.358 873C229.358 878.733 228.258 883.8 226.058 888.2C223.924 892.533 220.991 895.9 217.258 898.3C213.524 900.633 209.358 901.8 204.758 901.8C200.891 901.8 197.458 901 194.458 899.4C191.524 897.8 189.224 895.733 187.558 893.2V927.6H170.458V845.2H187.558V853.1ZM211.958 873C211.958 868.733 210.758 865.4 208.358 863C206.024 860.533 203.124 859.3 199.658 859.3C196.258 859.3 193.358 860.533 190.958 863C188.624 865.467 187.458 868.833 187.458 873.1C187.458 877.367 188.624 880.733 190.958 883.2C193.358 885.667 196.258 886.9 199.658 886.9C203.058 886.9 205.958 885.667 208.358 883.2C210.758 880.667 211.958 877.267 211.958 873ZM276.62 830.8V901H259.52V830.8H276.62ZM323.013 844.6C329.546 844.6 334.746 846.733 338.613 851C342.546 855.2 344.513 861 344.513 868.4V901H327.513V870.7C327.513 866.967 326.546 864.067 324.613 862C322.679 859.933 320.079 858.9 316.813 858.9C313.546 858.9 310.946 859.933 309.013 862C307.079 864.067 306.113 866.967 306.113 870.7V901H289.013V845.2H306.113V852.6C307.846 850.133 310.179 848.2 313.113 846.8C316.046 845.333 319.346 844.6 323.013 844.6ZM423.287 830.8V844.5H394.687V859.3H416.087V872.6H394.687V901H377.587V830.8H423.287ZM440.874 839.4C437.874 839.4 435.408 838.533 433.474 836.8C431.608 835 430.674 832.8 430.674 830.2C430.674 827.533 431.608 825.333 433.474 823.6C435.408 821.8 437.874 820.9 440.874 820.9C443.808 820.9 446.208 821.8 448.074 823.6C450.008 825.333 450.974 827.533 450.974 830.2C450.974 832.8 450.008 835 448.074 836.8C446.208 838.533 443.808 839.4 440.874 839.4ZM449.374 845.2V901H432.274V845.2H449.374ZM495.766 844.6C502.3 844.6 507.5 846.733 511.366 851C515.3 855.2 517.266 861 517.266 868.4V901H500.266V870.7C500.266 866.967 499.3 864.067 497.366 862C495.433 859.933 492.833 858.9 489.566 858.9C486.3 858.9 483.7 859.933 481.766 862C479.833 864.067 478.866 866.967 478.866 870.7V901H461.766V845.2H478.866V852.6C480.6 850.133 482.933 848.2 485.866 846.8C488.8 845.333 492.1 844.6 495.766 844.6ZM525.749 873C525.749 867.267 526.816 862.233 528.949 857.9C531.149 853.567 534.116 850.233 537.849 847.9C541.583 845.567 545.749 844.4 550.349 844.4C554.283 844.4 557.716 845.2 560.649 846.8C563.649 848.4 565.949 850.5 567.549 853.1V845.2H584.649V901H567.549V893.1C565.883 895.7 563.549 897.8 560.549 899.4C557.616 901 554.183 901.8 550.249 901.8C545.716 901.8 541.583 900.633 537.849 898.3C534.116 895.9 531.149 892.533 528.949 888.2C526.816 883.8 525.749 878.733 525.749 873ZM567.549 873.1C567.549 868.833 566.349 865.467 563.949 863C561.616 860.533 558.749 859.3 555.349 859.3C551.949 859.3 549.049 860.533 546.649 863C544.316 865.4 543.149 868.733 543.149 873C543.149 877.267 544.316 880.667 546.649 883.2C549.049 885.667 551.949 886.9 555.349 886.9C558.749 886.9 561.616 885.667 563.949 883.2C566.349 880.733 567.549 877.367 567.549 873.1ZM631.02 844.6C637.554 844.6 642.754 846.733 646.62 851C650.554 855.2 652.52 861 652.52 868.4V901H635.52V870.7C635.52 866.967 634.554 864.067 632.62 862C630.687 859.933 628.087 858.9 624.82 858.9C621.554 858.9 618.954 859.933 617.02 862C615.087 864.067 614.12 866.967 614.12 870.7V901H597.02V845.2H614.12V852.6C615.854 850.133 618.187 848.2 621.12 846.8C624.054 845.333 627.354 844.6 631.02 844.6ZM661.003 873.1C661.003 867.3 662.17 862.233 664.503 857.9C666.903 853.567 670.203 850.233 674.403 847.9C678.67 845.567 683.536 844.4 689.003 844.4C696.003 844.4 701.836 846.233 706.503 849.9C711.236 853.567 714.336 858.733 715.803 865.4H697.603C696.07 861.133 693.103 859 688.703 859C685.57 859 683.07 860.233 681.203 862.7C679.336 865.1 678.403 868.567 678.403 873.1C678.403 877.633 679.336 881.133 681.203 883.6C683.07 886 685.57 887.2 688.703 887.2C693.103 887.2 696.07 885.067 697.603 880.8H715.803C714.336 887.333 711.236 892.467 706.503 896.2C701.77 899.933 695.936 901.8 689.003 901.8C683.536 901.8 678.67 900.633 674.403 898.3C670.203 895.967 666.903 892.633 664.503 888.3C662.17 883.967 661.003 878.9 661.003 873.1ZM777.55 872.2C777.55 873.8 777.45 875.467 777.25 877.2H738.55C738.817 880.667 739.917 883.333 741.85 885.2C743.85 887 746.283 887.9 749.15 887.9C753.417 887.9 756.383 886.1 758.05 882.5H776.25C775.317 886.167 773.617 889.467 771.15 892.4C768.75 895.333 765.717 897.633 762.05 899.3C758.383 900.967 754.283 901.8 749.75 901.8C744.283 901.8 739.417 900.633 735.15 898.3C730.883 895.967 727.55 892.633 725.15 888.3C722.75 883.967 721.55 878.9 721.55 873.1C721.55 867.3 722.717 862.233 725.05 857.9C727.45 853.567 730.783 850.233 735.05 847.9C739.317 845.567 744.217 844.4 749.75 844.4C755.15 844.4 759.95 845.533 764.15 847.8C768.35 850.067 771.617 853.3 773.95 857.5C776.35 861.7 777.55 866.6 777.55 872.2ZM760.05 867.7C760.05 864.767 759.05 862.433 757.05 860.7C755.05 858.967 752.55 858.1 749.55 858.1C746.683 858.1 744.25 858.933 742.25 860.6C740.317 862.267 739.117 864.633 738.65 867.7H760.05Z" fill="black"/>
<path d="M782.399 215.505V808.302H607.023V222.511C630.378 239.709 659.254 249.901 690.465 249.901C725.71 249.901 757.77 236.949 782.399 215.505Z" fill="black"/>
<path d="M576.661 21.4443H0V196.821H570.716C552.881 173.678 542.265 144.59 542.265 112.742C542.265 77.4968 555.429 45.4365 576.661 21.4443Z" fill="black"/>
<path d="M685.794 218.265C746.066 218.265 794.926 169.405 794.926 109.132C794.926 48.8603 746.066 0 685.794 0C625.521 0 576.661 48.8603 576.661 109.132C576.661 169.405 625.521 218.265 685.794 218.265Z" fill="black"/>
<path d="M175.376 444.386V225.059H0V799.385H175.376V579.846H570.079V473.898V444.386H175.376Z" fill="black"/>
</svg>
